<?xml version="1.0" encoding="utf-8"?>
<!-- Generator: Adobe Illustrator 24.3.0, SVG Export Plug-In . SVG Version: 6.00 Build 0)  -->
<svg version="1.1" id="Layer_1" xmlns="http://www.w3.org/2000/svg" xmlns:xlink="http://www.w3.org/1999/xlink" x="0px" y="0px"
	 viewBox="0 0 50 50" style="enable-background:new 0 0 50 50;" xml:space="preserve">
<style type="text/css">
	.st0{fill:#FFFFFF;}
</style>
<g>
	<g>
		<path class="st0" d="M39.81,11.18h-2.35V9.32c0-0.54-0.44-0.97-0.97-0.97s-0.97,0.44-0.97,0.97v1.86h-9.54V9.32
			c0-0.54-0.44-0.97-0.97-0.97c-0.54,0-0.97,0.44-0.97,0.97v1.86H14.4V9.32c0-0.54-0.44-0.97-0.97-0.97s-0.97,0.44-0.97,0.97v1.86
			H10.2c-2.14,0-3.88,1.8-3.88,3.94v22.63c0,2.15,1.73,3.89,3.88,3.89l0,0h29.6c2.15,0,3.88-1.74,3.88-3.88l0,0V15.13
			C43.69,12.98,41.95,11.18,39.81,11.18z M41.75,37.76c0,1.07-0.86,1.94-1.93,1.95h-0.01H10.2c-1.07,0-1.94-0.87-1.94-1.94v-0.01
			V15.13c0-1.08,0.87-2,1.94-2h2.25v1.41c0,0.54,0.44,0.97,0.97,0.97s0.97-0.44,0.97-0.97v-1.41h9.64v1.41
			c0,0.54,0.44,0.97,0.97,0.97c0.54,0,0.97-0.44,0.97-0.97v-1.41h9.54v1.41c0,0.54,0.44,0.97,0.97,0.97s0.97-0.44,0.97-0.97v-1.41
			h2.35c1.08,0,1.94,0.92,1.94,2V37.76z"/>
		<path class="st0" d="M22.45,19.46h-1.7c-0.54,0-0.97,0.44-0.97,0.97c0,0.54,0.44,0.97,0.97,0.97h1.7c0.54,0,0.97-0.44,0.97-0.97
			C23.42,19.89,22.98,19.46,22.45,19.46z"/>
		<path class="st0" d="M29.22,19.46h-1.7c-0.54,0-0.97,0.44-0.97,0.97c0,0.54,0.44,0.97,0.97,0.97h1.7c0.54,0,0.97-0.44,0.97-0.97
			C30.19,19.89,29.76,19.46,29.22,19.46L29.22,19.46z"/>
		<path class="st0" d="M36.05,19.46h-1.7c-0.54,0-0.97,0.44-0.97,0.97c0,0.54,0.44,0.97,0.97,0.97h1.7c0.54,0,0.97-0.44,0.97-0.97
			C37.03,19.89,36.59,19.46,36.05,19.46L36.05,19.46z"/>
		<path class="st0" d="M22.45,26.17h-1.7c-0.54,0-0.97,0.44-0.97,0.97c0,0.54,0.44,0.97,0.97,0.97h1.7c0.54,0,0.97-0.44,0.97-0.97
			C23.42,26.61,22.98,26.17,22.45,26.17z"/>
		<path class="st0" d="M15.62,26.17h-1.71c-0.54,0-0.97,0.44-0.97,0.97c0,0.54,0.44,0.97,0.97,0.97h1.7c0.54,0,0.97-0.44,0.97-0.97
			C16.59,26.61,16.16,26.17,15.62,26.17z"/>
		<path class="st0" d="M29.22,26.17h-1.7c-0.54,0-0.97,0.44-0.97,0.97c0,0.54,0.44,0.97,0.97,0.97h1.7c0.54,0,0.97-0.44,0.97-0.97
			C30.19,26.61,29.76,26.17,29.22,26.17L29.22,26.17z"/>
		<path class="st0" d="M36.05,26.17h-1.7c-0.54,0-0.97,0.44-0.97,0.97c0,0.54,0.44,0.97,0.97,0.97h1.7c0.54,0,0.97-0.44,0.97-0.97
			C37.03,26.61,36.59,26.17,36.05,26.17L36.05,26.17z"/>
		<path class="st0" d="M22.45,32.79h-1.7c-0.54,0-0.97,0.44-0.97,0.97s0.44,0.97,0.97,0.97h1.7c0.54,0,0.97-0.44,0.97-0.97
			S22.98,32.79,22.45,32.79z"/>
		<path class="st0" d="M15.62,32.79h-1.71c-0.54,0-0.97,0.44-0.97,0.97s0.44,0.97,0.97,0.97h1.7c0.54,0,0.97-0.44,0.97-0.97
			S16.16,32.79,15.62,32.79z"/>
		<path class="st0" d="M29.22,32.79h-1.7c-0.54,0-0.97,0.44-0.97,0.97s0.44,0.97,0.97,0.97h1.7c0.54,0,0.97-0.44,0.97-0.97
			S29.76,32.79,29.22,32.79L29.22,32.79z"/>
	</g>
</g>
</svg>
